<svg width="64" height="64" viewBox="0 0 64 64" fill="none" xmlns="http://www.w3.org/2000/svg">
<path d="M16 0.5H48C56.5604 0.5 63.5 7.43959 63.5 16V48C63.5 56.5604 56.5604 63.5 48 63.5H16C7.43959 63.5 0.5 56.5604 0.5 48V16C0.5 7.43959 7.43959 0.5 16 0.5Z" fill="#FFE6E6"/>
<path d="M16 0.5H48C56.5604 0.5 63.5 7.43959 63.5 16V48C63.5 56.5604 56.5604 63.5 48 63.5H16C7.43959 63.5 0.5 56.5604 0.5 48V16C0.5 7.43959 7.43959 0.5 16 0.5Z" stroke="#CC0000"/>
<path d="M26.5879 20.8936C31.8985 20.8936 32.0638 20.8936 32.0638 20.8936V26.6383M32.0638 26.6383H20.5744V35.0638M32.0638 26.6383H43.4255V35.0638M17 35.0638H20.5744M20.5744 35.0638V43.1064H43.4255V35.0638M47 35.0638H43.4255M36.1191 32.1222V37.1376M27.6672 32.1222V37.1376" stroke="#CC0000" stroke-width="2.53305" stroke-linecap="round" stroke-linejoin="round"/>
</svg>
